<svg width="940" height="850" xmlns="http://www.w3.org/2000/svg">
 <style>.st0{opacity:0.5;fill:#B70534;enable-background:new ;} .st1{opacity:0.5;fill:#93082B;enable-background:new ;} .st2{opacity:0.5;} .st3{fill:#B70534;} .st4{fill:#93082B;}</style>

 <g>
  <title>background</title>
  <rect x="-1" y="-1" width="942" height="852" id="canvas_background" fill="#d71149"/>
 </g>
 <g>
  <title>Layer 1</title>
  <path class="st0" d="m708.9,223.7c-1.4,-9.6 -24,-17.2 -51.6,-17.2s-50.2,7.6 -51.6,17.2l-0.1,0l0,72.9c0,9.5 23.1,17.2 51.6,17.2s51.6,-7.7 51.6,-17.2l0.1,-72.9c0.1,0 0.1,0 0,0zm-51.5,-9.6c27.2,0 44,7.7 43.9,10.5c0.1,2.9 -16.7,10.5 -43.9,10.5s-44,-7.7 -43.9,-10.5c-0.1,-2.8 16.7,-10.5 43.9,-10.5z" id="svg_1"/>
  <path class="st1" d="m668,235.9c-10,-10 -26.2,-10 -36.1,0c-10,10 -10,26.2 0,36.1c8.4,8.4 21.2,9.6 31,3.9l16.4,16.4s4.5,4.5 9,0s0,-9 0,-9l-16.4,-16.4c5.7,-9.8 4.5,-22.6 -3.9,-31zm-6.8,29.3c-6.2,6.2 -16.3,6.2 -22.6,0c-6.2,-6.2 -6.2,-16.4 0,-22.6c6.2,-6.2 16.4,-6.2 22.6,0c6.3,6.3 6.3,16.4 0,22.6zm-569.9,148.8c0,0.1 0.1,0.1 0.1,0.1l-0.1,-0.1z" id="svg_2"/>
  <path class="st1" d="m160.7,406.9c-1.2,-6 -7.6,-11 -20.8,-16.6c-8.6,-3.6 -17.1,-6.1 -17.4,-6.2l-1,-0.2l-25,0l-1,0.2c-0.3,0.1 -8.6,2.5 -17.1,6.1c-13.1,5.5 -19.4,10.6 -20.5,16.6c0,0.2 -0.1,0.5 -0.1,0.7c0,0.4 -0.1,0.8 -0.1,1.2c0,2.5 0,8.2 22.6,34.7c5.3,6.3 11,12.5 15.5,17.1c7.8,8 10.4,9.4 13.5,9.4c3.2,0 5.7,-1.4 13.5,-9.4c4.5,-4.6 10.2,-10.8 15.5,-17c22.6,-26.3 22.6,-32.1 22.6,-34.6c0,-0.7 -0.1,-1.3 -0.2,-2z" id="svg_3"/>
  <path class="st1" d="m160.7,406.9c0.1,0.3 0.1,0.6 0.1,0.9c0,-0.3 -0.1,-0.6 -0.1,-0.9z" id="svg_4"/>
  <path class="st0" d="m88.8,412.2c0,0.1 0.1,0.1 0.1,0.1l-0.1,-0.1z" id="svg_5"/>
  <path class="st0" d="m167.8,404.2c0,-0.1 0,-0.1 0,0c-1.4,-6.8 -8.7,-12.6 -23.7,-18.9c-9.8,-4.1 -19.4,-6.9 -19.8,-7l-1.1,-0.2l-28.7,0l-1.1,0.2c-0.4,0.1 -9.8,2.9 -19.4,6.9c-14.9,6.3 -22.1,12 -23.3,18.8c0,0.2 -0.1,0.5 -0.1,0.8c0,0.4 -0.1,0.9 -0.1,1.3c0,2.8 0,9.4 25.7,39.5c6.1,7.1 12.5,14.2 17.6,19.5c8.9,9.1 11.8,10.7 15.4,10.7s6.5,-1.6 15.4,-10.6c5.1,-5.2 11.6,-12.2 17.6,-19.3c25.7,-30 25.7,-36.5 25.7,-39.3c0.1,-0.9 0,-1.7 -0.1,-2.4zm-117.1,0s0,0.1 0,0c0,0.1 0,0 0,0zm78.9,8.6l-20.3,55l-20.3,-55l-30.5,-6.8l0,-0.4c0.9,-8.4 30.7,-18 36.3,-19.8c-0.7,2.4 -7.5,25.2 -5.9,26.5l40.7,0c0.9,-2.5 -6.1,-24 -6.8,-26.4c5.6,1.8 35.5,11.5 37.1,19.8l0,0.3l-30.3,6.8z" id="svg_6"/>
  <path class="st0" d="m167.8,404.2c0.1,0.3 0.1,0.7 0.2,1.1c-0.1,-0.4 -0.2,-0.8 -0.2,-1.1zm131.5,-262.2l17.4,0l0,10.2l-17.4,0l0,-10.2zm-30.6,-89.4l17.4,0l0,10.2l-17.4,0l0,-10.2zm0,89.4l17.4,0l0,10.2l-17.4,0l0,-10.2zm-41.5,-48.7l10.2,0l0,18.2l-10.2,0l0,-18.2zm102.6,-30.6l18.3,0l0,17.4l10.2,0l0,-21.7c0,-3.2 -2.6,-5.8 -5.8,-5.8l-22.6,0l0,10.1l-0.1,0zm-74.1,79.3l-18.3,0l0,-17.5l-10.2,0l0,21.8c0,3.2 2.6,5.8 5.8,5.8l22.6,0l0.1,-10.1zm55.8,-141.1l0,61.8l18.3,0l0,-10.1l-96.8,0c-3.2,0 -5.8,2.6 -5.8,5.8l0,21.8l10.2,0l74.1,-79.3zm61.9,-27.6l17.4,0l0,10.2l-17.4,0l0,69.1l0,-79.3zm48.8,71.9l0,96.8l-18.3,0l0,10.2l22.6,0c3.2,0 5.8,-2.6 5.8,-5.8l0,-21.9l-10.1,0l0,-79.3zm0,-31.2l10.2,0l0,18.2l-10.2,0l0,61.1l0,-79.3z" id="svg_7"/>
  <circle class="st0" cx="292.7" cy="101.6" r="27.5" id="svg_8"/>
  <path class="st1" d="m292.7,84c9.8,0 17.7,7.9 17.7,17.7s-7.9,17.7 -17.7,17.7l0,-35.4zm418,322.4l-0.2,-0.2c-0.4,-1.5 -1.4,-2.7 -2.8,-3.3l-49.4,-33.7c-0.5,-0.4 -1.1,-0.5 -1.7,-0.5c-0.6,0 -1.2,0.2 -1.7,0.5l-49.4,33.7c-1.4,0.6 -2.4,1.8 -2.8,3.3l-0.2,0.2l0,59.8c0,2.7 2.2,4.9 4.9,4.9l98.3,0c2.7,0 4.9,-2.2 4.9,-4.9l0,-59.3c0.1,-0.2 0.1,-0.3 0.1,-0.5z" id="svg_9"/>
  <path class="st0" d="m681.7,429.3c2,0 3.7,-1.7 3.7,-3.7s-1.7,-3.7 -3.7,-3.7l-4.1,0l0,-14.5l4.1,0c2,0 3.7,-1.7 3.7,-3.7s-1.7,-3.7 -3.7,-3.7l-4.1,0l0,-6.2c0,-2 -1.7,-3.7 -3.7,-3.7s-3.7,1.7 -3.7,3.7l0,6.2l-27.2,0l0,-6.2c0,-2 -1.7,-3.7 -3.7,-3.7s-3.7,1.7 -3.7,3.7l0,6.2l-4.1,0c-2,0 -3.7,1.7 -3.7,3.7s1.7,3.7 3.7,3.7l4.1,0l0,14.5l-4.1,0c-2,0 -3.7,1.7 -3.7,3.7s1.7,3.7 3.7,3.7l4.1,0l0,14.5l-4.1,0c-2,0 -3.7,1.7 -3.7,3.7s1.7,3.7 3.7,3.7l4.9,0c0.7,0.9 1.7,1.4 2.9,1.4s2.2,-0.6 2.9,-1.4l28.8,0c0.7,0.9 1.7,1.4 2.9,1.4s2.2,-0.6 2.9,-1.4l4.9,0c2,0 3.7,-1.7 3.7,-3.7s-1.7,-3.7 -3.7,-3.7l-4.1,0l0,-14.5l4.1,0zm-38.7,-21.9l27.2,0l0,14.5l-27.2,0l0,-14.5zm27.2,36.4l-27.2,0l0,-14.5l27.2,0l0,14.5z" id="svg_10"/>
  <path class="st0" d="m656.6,449.4c-0.6,0 -1.2,-0.2 -1.7,-0.5l-52.4,-35.7l0,56.6c0,2.7 2.2,4.9 4.9,4.9l98.3,0c2.7,0 4.9,-2.2 4.9,-4.9l0,-56.6l-52.4,35.7c-0.4,0.4 -1,0.5 -1.6,0.5z" id="svg_11"/>
  <circle class="st0" cx="468.7" cy="430.7" r="48" id="svg_12"/>
  <path class="st1" d="m468.7,478.9c11.2,0 21.5,-3.8 29.6,-10.3l-42.6,-53.5c-1.1,-1.3 -2.7,-2.1 -4.4,-2.1s-3.3,0.8 -4.4,2.1l-24,30.1c6.1,19.6 24.3,33.7 45.8,33.7z" id="svg_13"/>
  <path class="st1" d="m500,429.8c-1.1,-1.4 -2.7,-2.2 -4.5,-2.2s-3.4,0.8 -4.5,2.2l-11.5,15.2l18.9,23.7c6.8,-5.4 12.2,-12.5 15.3,-20.8l-13.7,-18.1z" id="svg_14"/>
  <circle class="st1" cx="505.8" cy="392" r="25.9" id="svg_15"/>
  <path class="st0" d="m505.2,397.3c-1.2,0 -2,-0.9 -2.1,-1.9l-0.4,-2.7c-0.2,-1.3 0.6,-2.2 1.8,-2.4c3.5,-0.4 5,-1.5 5,-3.5l0,-0.1c0,-1.8 -1.3,-2.8 -3.6,-2.8c-1.7,0 -3.2,0.5 -4.6,1.6c-0.5,0.4 -1.1,0.6 -1.8,0.6c-1.5,0 -2.8,-1.3 -2.8,-2.8c0,-0.8 0.3,-1.5 1,-2.1c2.1,-1.7 4.8,-2.9 8.3,-2.9c5.7,0 9.6,2.9 9.6,8.2l0,0.1c0,5 -3.5,7.1 -7.8,8l-0.1,0.7c-0.2,1 -1,1.9 -2.1,1.9l-0.4,0.1zm0,2.6c2,0 3.5,1.5 3.5,3.4l0,0.1c0,1.9 -1.5,3.4 -3.5,3.4s-3.5,-1.5 -3.5,-3.4l0,-0.1c0,-1.9 1.5,-3.4 3.5,-3.4zm9.2,-120.4c-3.9,-3.9 -18.2,-8.3 -24.7,-10.1c-1,-1.6 -2,-3.9 -2.4,-6.6c1.9,-2 3.3,-4.6 5.1,-7.5c3.8,-6.4 5.5,-13.6 5.5,-18.7c0,-10.2 -1.3,-28.9 -21.7,-28.9s-21.3,18.7 -21.3,28.9c0,5.1 2.2,13 6.1,19.3c1.6,2.6 2.7,4.8 4.2,6.6c-0.6,3.1 -1.9,5.6 -3.2,7.3c-7.1,2.5 -21.3,7.7 -25.1,11.5c-5.1,5.1 -9,12.6 -9,17.7l98.1,0c-0.2,-5 -6.5,-14.4 -11.6,-19.5z" id="svg_16"/>
  <path class="st1" d="m506.7,296.4l-28.6,-29.7c-0.5,-0.5 -1.1,-0.7 -1.7,-0.7c-0.3,0 -0.6,0.1 -0.9,0.2c-0.9,0.4 -1.5,1.2 -1.5,2.2l0,42.8c0,1 0.6,1.9 1.5,2.2c0.3,0.1 0.6,0.2 0.9,0.2c0.7,0 1.3,-0.3 1.8,-0.8l8.1,-8.9l5.9,14.8c0.6,1.6 2.2,2.6 3.9,2.6c0.5,0 1,-0.1 1.5,-0.3c2.1,-0.8 3.2,-3.3 2.3,-5.4l-6,-15.1l11,0c1,0 1.8,-0.6 2.2,-1.4c0.4,-1 0.2,-2 -0.4,-2.7zm25.2,-88.9c-0.7,0 -1.4,0.1 -2,0.3c0.2,-0.6 0.3,-1.3 0.3,-2c0,-3.7 -3,-6.8 -6.8,-6.8c-3.7,0 -6.8,3 -6.8,6.8c0,0.7 0.1,1.4 0.3,2c-0.6,-0.2 -1.3,-0.3 -2,-0.3c-3.7,0 -6.8,3 -6.8,6.8c0,3.7 3,6.8 6.8,6.8c0.7,0 1.4,-0.1 2,-0.3c-0.2,0.6 -0.3,1.3 -0.3,2c0,3.7 3,6.8 6.8,6.8c3.7,0 6.8,-3 6.8,-6.8c0,-0.7 -0.1,-1.4 -0.3,-2c0.6,0.2 1.3,0.3 2,0.3c3.7,0 6.8,-3 6.8,-6.8c-0.1,-3.8 -3.1,-6.8 -6.8,-6.8zm-91.6,32.9c-0.3,-0.4 -0.7,-0.5 -2.6,-0.7c-1,-0.1 -2.3,-0.3 -3.9,-0.4c-1.9,-0.2 -3.7,-0.3 -4.7,-0.4c-0.3,-0.9 -0.9,-2.4 -1.5,-4c-1.6,-4.1 -2.5,-5.4 -2.9,-6c-0.4,-0.7 -1,-0.7 -1.2,-0.7l-0.2,0c-0.2,0 -0.8,0.1 -1.2,0.7c-0.5,0.6 -1.3,1.9 -2.9,6l-1.5,4c-1,0.1 -2.9,0.2 -4.7,0.4c-1.6,0.1 -2.9,0.3 -3.9,0.4c-1.9,0.2 -2.3,0.4 -2.6,0.7c-0.3,0.3 -0.4,0.7 -0.4,1.1c0.1,0.7 0.4,1.7 4.4,5.1c1.3,1.1 2.6,2.1 3.3,2.7c-0.3,1 -0.9,3 -1.5,4.9c-0.5,1.7 -0.9,3 -1.2,4c-0.5,1.9 -0.6,2.6 0,3.1c0.2,0.2 0.5,0.4 1.1,0.4c0.4,0 1.5,0 6.5,-2.7c1.9,-1 3.7,-2.1 4.7,-2.6c1,0.6 2.8,1.6 4.7,2.6c5,2.7 6,2.7 6.5,2.7c0.6,0 0.9,-0.2 1.1,-0.4c0.6,-0.6 0.4,-1.2 0,-3.1c-0.3,-1 -0.6,-2.4 -1.2,-4c-0.6,-1.9 -1.2,-3.9 -1.5,-4.9c0.7,-0.6 2,-1.6 3.3,-2.7c4,-3.4 4.4,-4.4 4.4,-5.1c-0.1,-0.4 -0.2,-0.8 -0.4,-1.1z" id="svg_17"/>
  <path class="st0" d="m693.7,799.7c0,3.5 -2.8,6.3 -6.3,6.3l-79.8,0c-3.5,0 -6.3,-2.8 -6.3,-6.3l0,-97c0,-3.5 2.8,-6.3 6.3,-6.3l59.1,0l3.4,22.9l23.7,4.1l0,76.3l-0.1,0z" id="svg_18"/>
  <path class="st1" d="m693.7,723.4l-17.5,0c-5.3,0 -9.6,-4.3 -9.6,-9.6l0,-17.2l27.1,26.8zm187.6,79.3c0,3 -2.5,5.5 -5.5,5.5l-68,0c-3,0 -5.5,-2.5 -5.5,-5.5l0,-57.7c0,-3 2.5,-5.5 5.5,-5.5l68,0c3,0 5.5,2.5 5.5,5.5l0,57.7z" id="svg_19"/>
  <path class="st0" d="m849.3,759.4l-33.3,0c-1.5,0 -2.7,-1.2 -2.7,-2.7s1.2,-2.7 2.7,-2.7l33.3,0c1.5,0 2.7,1.2 2.7,2.7s-1.2,2.7 -2.7,2.7zm16.2,3.4c-0.4,0 -0.9,-0.2 -1.2,-0.5l-4.7,-4.2c-0.8,-0.7 -0.8,-1.8 -0.1,-2.6s1.8,-0.8 2.6,-0.1l3.2,2.8l5.5,-7.6c0.6,-0.8 1.8,-1 2.6,-0.4s1,1.8 0.4,2.6l-6.8,9.2c-0.3,0.4 -0.8,0.7 -1.3,0.7c-0.1,0.1 -0.2,0.1 -0.2,0.1zm-16.2,13.8l-33.3,0c-1.5,0 -2.7,-1.2 -2.7,-2.7s1.2,-2.7 2.7,-2.7l33.3,0c1.5,0 2.7,1.2 2.7,2.7s-1.2,2.7 -2.7,2.7zm16.2,2.7c-0.4,0 -0.9,-0.2 -1.2,-0.5l-4.7,-4.2c-0.8,-0.7 -0.8,-1.8 -0.1,-2.6s1.8,-0.8 2.6,-0.1l3.2,2.8l5.5,-7.6c0.6,-0.8 1.8,-1 2.6,-0.4s1,1.8 0.4,2.6l-6.7,9.2c-0.3,0.4 -0.8,0.7 -1.3,0.7c-0.2,0.1 -0.3,0.1 -0.3,0.1zm-16.2,14.5l-33.3,0c-1.5,0 -2.7,-1.2 -2.7,-2.7s1.2,-2.7 2.7,-2.7l33.3,0c1.5,0 2.7,1.2 2.7,2.7s-1.2,2.7 -2.7,2.7z" id="svg_20"/>
  <circle class="st0" cx="804.6" cy="733.7" r="39.4" id="svg_21"/>
  <path class="st1" d="m821.2,745.3c-1.7,-1.7 -8,-3.7 -10.9,-4.5c-0.5,-0.7 -0.9,-1.7 -1.1,-2.9c0.9,-0.9 1.5,-2 2.2,-3.3c1.7,-2.8 2.4,-6.1 2.4,-8.3c0,-4.5 -0.6,-12.9 -9.6,-12.9s-9.4,8.3 -9.4,12.9c0,2.3 1,5.8 2.7,8.6c0.7,1.2 1.2,2.1 1.8,2.9c-0.3,1.4 -0.8,2.5 -1.4,3.3c-3.2,1.1 -9.4,3.4 -11.1,5.1c-2.2,2.3 -4,5.6 -4,7.9l43.3,0c0.2,-2.3 -2.7,-6.5 -4.9,-8.8z" id="svg_22"/>
  <g class="st2" id="svg_23">
   <path class="st3" d="m160.2,65l0,79.1l-102,0l0,-79.1l102,0zm2.2,-25l-106.3,0c-4.7,0 -8.6,3.8 -8.6,8.6l0,97.7c0,4.7 3.8,8.6 8.6,8.6l106.2,0c4.7,0 8.6,-3.8 8.6,-8.6l0,-97.7c0,-4.8 -3.8,-8.6 -8.5,-8.6z" id="svg_24"/>
   <circle class="st4" cx="62.8" cy="52.6" r="4.3" id="svg_25"/>
   <circle class="st4" cx="74.7" cy="52.6" r="4.3" id="svg_26"/>
   <circle class="st4" cx="87" cy="52.6" r="4.3" id="svg_27"/>
   <path class="st4" d="m58.3,65l102,0l0,79.1l-102,0l0,-79.1z" id="svg_28"/>
   <path class="st3" d="m99.2,125.7c-1.4,0 -2.8,-0.5 -3.8,-1.6l-17.1,-17.2c-1,-1 -1.6,-2.4 -1.5,-3.8c0,-1.4 0.6,-2.8 1.6,-3.8l17.1,-16.8c2.1,-2.1 5.5,-2 7.6,0.1c2.1,2.1 2,5.5 -0.1,7.6l-13.3,13l13.3,13.4c2.1,2.1 2.1,5.5 0,7.6c-1.1,1 -2.4,1.5 -3.8,1.5zm20.1,0c-1.4,0 -2.8,-0.5 -3.8,-1.6c-2.1,-2.1 -2,-5.5 0.1,-7.6l13.3,-13l-13.4,-13.4c-2.1,-2.1 -2.1,-5.5 0,-7.6s5.5,-2.1 7.6,0l17.1,17.3c1,1 1.6,2.4 1.5,3.8c0,1.4 -0.6,2.8 -1.6,3.8l-17.1,16.8c-1,1 -2.3,1.5 -3.7,1.5z" id="svg_29"/>
  </g>
  <g class="st2" id="svg_30">
   <path class="st4" d="m647.5,638.7c-2.4,0 -4.4,-2 -4.4,-4.4l0,-35.8c0,-2.4 2,-4.4 4.4,-4.4s4.4,2 4.4,4.4l0,35.8c0,2.4 -2,4.4 -4.4,4.4z" id="svg_31"/>
   <path class="st3" d="m702.1,615.2l-109.3,0l0,-74.8c0,-4.2 3.4,-7.5 7.5,-7.5l94.3,0c4.2,0 7.5,3.4 7.5,7.5l0,74.8z" id="svg_32"/>
   <path class="st4" d="m592.8,554.2l0,-13.8c0,-4.2 3.4,-7.5 7.5,-7.5l94.2,0c4.2,0 7.5,3.4 7.5,7.5l0,13.8l-109.2,0z" id="svg_33"/>
   <path class="st4" d="m647.5,523.5c2.4,0 4.4,2 4.4,4.4c0,2.4 -2,4.4 -4.4,4.4s-4.4,-2 -4.4,-4.4c0,-2.5 1.9,-4.4 4.4,-4.4m0,-6.3c-5.9,0 -10.7,4.8 -10.7,10.7s4.8,10.7 10.7,10.7s10.7,-4.8 10.7,-10.7c-0.1,-5.9 -4.8,-10.7 -10.7,-10.7z" id="svg_34"/>
   <circle class="st4" cx="610.2" cy="571.8" r="6.9" id="svg_35"/>
   <path class="st4" d="m682.5,575l-53.4,0c-1.7,0 -3.1,-1.4 -3.1,-3.1s1.4,-3.1 3.1,-3.1l53.4,0c1.7,0 3.1,1.4 3.1,3.1s-1.4,3.1 -3.1,3.1z" id="svg_36"/>
   <circle class="st4" cx="610.2" cy="593.2" r="6.9" id="svg_37"/>
   <path class="st4" d="m669.3,596.3l-40.2,0c-1.7,0 -3.1,-1.4 -3.1,-3.1c0,-1.7 1.4,-3.1 3.1,-3.1l40.2,0c1.7,0 3.1,1.4 3.1,3.1c0,1.7 -1.4,3.1 -3.1,3.1zm-6.1,43l-31.4,0c-2.1,0 -3.8,-1.7 -3.8,-3.8s1.7,-3.8 3.8,-3.8l31.4,0c2.1,0 3.8,1.7 3.8,3.8s-1.8,3.8 -3.8,3.8zm38.9,-20.4l-109.3,0c-1.7,0 -3.1,-1.4 -3.1,-3.1c0,-1.7 1.4,-3.1 3.1,-3.1l109.4,0c1.7,0 3.1,1.4 3.1,3.1c0,1.7 -1.4,3.1 -3.2,3.1z" id="svg_38"/>
  </g>
  <g class="st2" id="svg_39">
   <path class="st3" d="m338.8,383.8l-93.9,0c-4.5,0 -8.1,3.6 -8.1,8.1l0,67.6c0,4.5 3.6,8.1 8.1,8.1l53.1,0l13.6,15.2c0.4,0.4 0.9,0.6 1.5,0.6s1.1,-0.2 1.5,-0.6l13.8,-15.2l10.3,0c4.5,0 8.1,-3.6 8.1,-8.1l0,-67.6c0.1,-4.5 -3.5,-8.1 -8,-8.1z" id="svg_40"/>
   <path class="st4" d="m287.1,409.1l-32.4,0c-2.2,0 -4.1,-1.8 -4.1,-4.1s1.8,-4.1 4.1,-4.1l32.4,0c2.2,0 4.1,1.8 4.1,4.1s-1.8,4.1 -4.1,4.1zm31.1,18.9l-63.5,0c-2.2,0 -4.1,-1.8 -4.1,-4.1s1.8,-4.1 4.1,-4.1l63.5,0c2.2,0 4.1,1.8 4.1,4.1s-1.9,4.1 -4.1,4.1zm-18.9,18.9l-44.6,0c-2.2,0 -4.1,-1.8 -4.1,-4.1s1.8,-4.1 4.1,-4.1l44.6,0c2.2,0 4.1,1.8 4.1,4.1s-1.9,4.1 -4.1,4.1z" id="svg_41"/>
   <circle class="st4" cx="340.1" cy="387.2" r="13.8" id="svg_42"/>
  </g>
  <g class="st2" id="svg_43">
   <path class="st4" d="m595.2,93.4l122.7,0l0,11.1l-122.7,0l0,-11.1zm89.1,-18.7l-8.6,0l0,-12.2l-38,0c-0.6,0 -1.4,0.2 -1.5,0.4c0,0 -0.1,0.1 -0.1,0.5l0,11.3l-8.6,0l0,-11.3c0,-2.7 0.9,-5 2.7,-6.7c2.9,-2.8 6.8,-2.9 7.7,-2.9l38.6,0c3,0 4.8,1.4 5.8,2.5c2.3,2.6 2.2,6 2.1,7.3l0,11.1l-0.1,0z" id="svg_44"/>
   <path class="st3" d="m717.9,95.3l0,-13.7c0,-7.2 -7.2,-7.2 -7.2,-7.2l-108.3,0s-7.2,0 -7.2,7.2l0,13.7l122.7,0zm-122.7,5.6l0,38.7s0,7.2 7.2,7.2l108.3,0s7.2,0 7.2,-7.2l0,-38.7l-122.7,0z" id="svg_45"/>
   <path class="st4" d="m621.9,104.6c0,2.4 -1.9,4.3 -4.3,4.3l-3.6,0c-2.4,0 -4.3,-1.9 -4.3,-4.3l0,-11.5c0,-2.4 1.9,-4.3 4.3,-4.3l3.6,0c2.4,0 4.3,1.9 4.3,4.3l0,11.5zm70.8,0c0,2.4 1.9,4.3 4.3,4.3l3.6,0c2.4,0 4.3,-1.9 4.3,-4.3l0,-11.5c0,-2.4 -1.9,-4.3 -4.3,-4.3l-3.6,0c-2.4,0 -4.3,1.9 -4.3,4.3l0,11.5z" id="svg_46"/>
  </g>
  <g class="st2" id="svg_47">
   <path class="st3" d="m536.5,65.1c1.4,0 2.5,1.1 2.5,2.5l0,27.6c0,1.4 -1.1,2.5 -2.5,2.5l-120.6,0c-1.4,0 -2.5,-1.1 -2.5,-2.5l0,-27.6c0,-1.4 1.1,-2.5 2.5,-2.5l120.6,0z" id="svg_48"/>
   <circle class="st4" cx="430.2" cy="82.1" r="4.8" id="svg_49"/>
   <circle class="st4" cx="445.2" cy="82.1" r="4.8" id="svg_50"/>
   <circle class="st4" cx="460.1" cy="82.1" r="4.8" id="svg_51"/>
   <circle class="st4" cx="475.1" cy="82.1" r="4.8" id="svg_52"/>
   <path class="st4" d="m520.2,91.9c-0.9,0 -1.7,-0.4 -2.3,-1l-6.1,-6.8c-1.1,-1.3 -1,-3.2 0.2,-4.3c1.3,-1.1 3.2,-1 4.3,0.2l3.6,4l8,-11.2c1,-1.4 2.9,-1.7 4.3,-0.7s1.7,2.9 0.7,4.3l-10.2,14.3c-0.5,0.8 -1.4,1.2 -2.3,1.3c-0.1,-0.1 -0.2,-0.1 -0.2,-0.1z" id="svg_53"/>
   <path class="st3" d="m536.5,108.6c1.4,0 2.5,1.1 2.5,2.5l0,27.6c0,1.4 -1.1,2.5 -2.5,2.5l-120.6,0c-1.4,0 -2.5,-1.1 -2.5,-2.5l0,-27.6c0,-1.4 1.1,-2.5 2.5,-2.5l120.6,0z" id="svg_54"/>
   <circle class="st4" cx="430.2" cy="125.6" r="4.8" id="svg_55"/>
   <circle class="st4" cx="445.2" cy="125.6" r="4.8" id="svg_56"/>
   <circle class="st4" cx="460.1" cy="125.6" r="4.8" id="svg_57"/>
   <path class="st4" d="m526.2,125.3l5,-5c1.2,-1.2 1.2,-3.1 0,-4.3c-1.2,-1.2 -3.1,-1.2 -4.3,0l-5,5l-5,-5c-1.2,-1.2 -3.1,-1.2 -4.3,0s-1.2,3.1 0,4.3l5,5l-5,5c-1.2,1.2 -1.2,3.1 0,4.3c0.6,0.6 1.4,0.9 2.2,0.9c0.8,0 1.6,-0.3 2.2,-0.9l5,-5l5,5c0.6,0.6 1.4,0.9 2.2,0.9c0.8,0 1.6,-0.3 2.2,-0.9c1.2,-1.2 1.2,-3.1 0,-4.3l-5.2,-5z" id="svg_58"/>
  </g>
  <g class="st2" id="svg_59">
   <path class="st3" d="m784,555.2c0,-5.1 5.1,-5.1 5.1,-5.1l12.4,0s5.1,0 5.1,5.1l0,11.8c0,5.1 -5.1,5.1 -5.1,5.1l-12.4,0c-5.1,0 -5.1,-5.1 -5.1,-5.1l0,-11.8z" id="svg_60"/>
   <path class="st4" d="m784,588.5c0,-5.1 5.1,-5.1 5.1,-5.1l12.4,0s5.1,0 5.1,5.1l0,11.8c0,5.1 -5.1,5.1 -5.1,5.1l-12.4,0c-5.1,0 -5.1,-5.1 -5.1,-5.1l0,-11.8z" id="svg_61"/>
   <path class="st3" d="m784,621.8c0,-5.1 5.1,-5.1 5.1,-5.1l12.4,0s5.1,0 5.1,5.1l0,11.8c0,5.1 -5.1,5.1 -5.1,5.1l-12.4,0c-5.1,0 -5.1,-5.1 -5.1,-5.1l0,-11.8zm33.9,-66.6c0,-5.1 5.1,-5.1 5.1,-5.1l12.4,0s5.1,0 5.1,5.1l0,11.8c0,5.1 -5.1,5.1 -5.1,5.1l-12.4,0c-5.1,0 -5.1,-5.1 -5.1,-5.1l0,-11.8z" id="svg_62"/>
   <path class="st4" d="m817.9,588.5c0,-5.1 5.1,-5.1 5.1,-5.1l12.4,0s5.1,0 5.1,5.1l0,11.8c0,5.1 -5.1,5.1 -5.1,5.1l-12.4,0c-5.1,0 -5.1,-5.1 -5.1,-5.1l0,-11.8z" id="svg_63"/>
   <path class="st3" d="m817.9,621.8c0,-5.1 5.1,-5.1 5.1,-5.1l12.4,0s5.1,0 5.1,5.1l0,11.8c0,5.1 -5.1,5.1 -5.1,5.1l-12.4,0c-5.1,0 -5.1,-5.1 -5.1,-5.1l0,-11.8zm34.2,-66.6c0,-5.1 5.1,-5.1 5.1,-5.1l12.4,0s5.1,0 5.1,5.1l0,11.8c0,5.1 -5.1,5.1 -5.1,5.1l-12.4,0c-5.1,0 -5.1,-5.1 -5.1,-5.1l0,-11.8z" id="svg_64"/>
   <path class="st4" d="m852.1,588.5c0,-5.1 5.1,-5.1 5.1,-5.1l12.4,0s5.1,0 5.1,5.1l0,11.8c0,5.1 -5.1,5.1 -5.1,5.1l-12.4,0c-5.1,0 -5.1,-5.1 -5.1,-5.1l0,-11.8z" id="svg_65"/>
   <path class="st3" d="m852.1,621.8c0,-5.1 5.1,-5.1 5.1,-5.1l12.4,0s5.1,0 5.1,5.1l0,11.8c0,5.1 -5.1,5.1 -5.1,5.1l-12.4,0c-5.1,0 -5.1,-5.1 -5.1,-5.1l0,-11.8z" id="svg_66"/>
  </g>
  <path class="st1" d="m498,559.3c0,-17.9 -14.4,-32.4 -32.3,-32.4s-32.6,14.5 -32.6,32.4c0,16 11.5,29.3 26.6,31.9l0,8.3l-6.1,0s-4.5,0 -4.5,5.6s4.5,5.6 4.5,5.6l6.1,0l0,6.7l-6.1,0s-4.5,0 -4.5,5.6s4.5,5.6 4.5,5.6l6.1,0l0,1.1c0,4.5 2.2,7.8 7.8,7.8s7.8,-3.4 7.8,-7.8l0,-39.6c13.4,-4.2 22.7,-16.4 22.7,-30.8zm-41.1,-11.1c0,-4.9 4,-8.9 8.9,-8.9s8.9,4 8.9,8.9s-4,8.9 -8.9,8.9s-8.9,-4 -8.9,-8.9z" id="svg_67"/>
  <g class="st2" id="svg_68">
   <path class="st3" d="m530.6,715.3c-0.8,-1.1 -2.1,-1.7 -3.4,-1.7l-107.1,0l-3,-8c-0.4,-1 -1.1,-1.8 -2,-2.3l-9.2,-4.9c-2.1,-1.1 -4.7,-0.3 -5.8,1.7c-1.1,2.1 -0.3,4.7 1.7,5.8l7.8,4.2l3.5,9.3l17.6,50.9c-2.3,3.7 -6.3,11.7 -3,18.3c2.6,5.2 8.8,7.9 18.4,7.9l51.4,0c2.4,0 4.3,-1.9 4.3,-4.3s-1.9,-4.3 -4.3,-4.3l-51.4,0c-5.8,0 -9.7,-1.1 -10.7,-3.1c-1.1,-2.2 0.5,-6.5 2.3,-9.5l75.2,0c1.9,0 3.6,-1.3 4.2,-3.2l14.3,-53c0.3,-1.4 0,-2.8 -0.8,-3.8zm-13.8,24.8l-14,0l0,-17.9l18.8,0l-4.8,17.9zm-84.5,8.6l11,0l0,17.9l-4.8,0l-6.2,-17.9zm19.6,0l16.9,0l0,17.9l-16.9,0l0,-17.9zm0,-8.6l0,-17.9l16.9,0l0,17.9l-16.9,0zm25.6,8.6l16.7,0l0,17.9l-16.7,0l0,-17.9zm0,-8.6l0,-17.9l16.7,0l0,17.9l-16.7,0zm-34.2,-17.9l0,17.9l-14,0l-6.2,-17.9l20.2,0zm66.3,44.4l-6.9,0l0,-17.9l11.7,0l-4.8,17.9z" id="svg_69"/>
   <circle class="st4" cx="496.1" cy="794.4" r="10.2" id="svg_70"/>
   <circle class="st4" cx="447.5" cy="794.4" r="10.2" id="svg_71"/>
  </g>
  <path class="st0" d="m835.4,46.8c-13.6,0 -32.7,10.2 -32.7,32.7c0,19.6 7.9,29.1 13.6,36c3,3.6 5.1,3 5.1,5.9l0,8l28,0l0,-8c0,-2.9 2.1,-2.4 5.1,-5.9c5.8,-6.9 13.6,-16.4 13.6,-36c0.1,-22.5 -19.1,-32.7 -32.7,-32.7z" id="svg_72"/>
  <path class="st1" d="m843,106.8c-0.7,-0.1 -2.2,-1.1 -3.8,-2.7c3.6,-4.7 6.5,-10.9 6.5,-17c0,-11.8 -3.5,-17.8 -10.3,-17.8c-6.9,0 -10.3,6 -10.3,17.8c0,6.2 2.9,12.3 6.5,17.1c-1.6,1.6 -3,2.5 -3.7,2.7c-1.6,0 -2.8,1.3 -2.8,2.8c0,1.6 1.3,2.8 2.8,2.8c2,0 4.7,-1.6 7.5,-4.1c2.8,2.6 5.5,4.1 7.5,4.1c1.6,0 2.9,-1.3 2.9,-2.8c0,-1.6 -1.2,-2.9 -2.8,-2.9zm-12.3,-19.7c0,-8.2 1.5,-12.2 4.7,-12.2s4.7,4 4.7,12.2c0,4.6 -2.2,9.1 -4.7,12.6c-2.5,-3.5 -4.7,-8 -4.7,-12.6zm-3.8,47.7l-5.4,0l0,2c0,0.3 0.1,0.5 0.2,0.8c-0.1,0.6 -0.2,1 -0.2,1l0,6.4c0,5.3 3.8,6.5 5.8,6.9c0.5,1.7 1.6,3.9 5.3,3.9l5.7,0c3.7,0 4.8,-2.2 5.3,-3.9c2,-0.3 5.8,-1.6 5.8,-6.9l0,-6.4c0,-0.4 -0.1,-0.8 -0.1,-1.1c0.1,-0.2 0.1,-0.5 0.1,-0.7l0,-2l-22.5,0z" id="svg_73"/>
  <path class="st0" d="m890.7,203.2l-103.8,0s-8.6,0 -10,8.2l0,97c0,8.6 9.9,8.6 9.9,8.6l104.6,0s7.2,0 7.2,-8.6l0,-97s0.1,-8.2 -7.9,-8.2zm-0.3,105l-105.3,0l0,-79.6l105.3,0l0,79.6z" id="svg_74"/>
  <path class="st1" d="m802.9,274.2c0,2.9 3.8,3 3.8,3l28.9,0c2.9,0 2.2,-3 2.2,-3l0,-28.6c0,-2.9 -2.2,-2.5 -2.2,-2.5l-28.9,0c-2.9,0 -3.8,2.5 -3.8,2.5l0,28.6zm43.7,12.8c0,2.9 3.4,2.6 3.4,2.6l21.2,0c2.9,0 1.9,-2.6 1.9,-2.6l0,-8.6c0,-2.9 -1.9,-3.1 -1.9,-3.1l-21.2,0c-2.9,0 -3.4,3.1 -3.4,3.1l0,8.6zm3.4,-13.9c-2.9,0 -3.3,-3 -3.3,-3l0,-20c0,-2.9 3.1,-2.9 3.1,-2.9l23.2,22.9s0.1,2.9 -2.8,2.9c-2.9,0.1 -20.2,0.1 -20.2,0.1z" id="svg_75"/>
  <g class="st2" id="svg_76">
   <path class="st3" d="m170.9,799.7c0,3.2 -2.6,5.7 -5.7,5.7l-108.8,0c-3.2,0 -5.7,-2.6 -5.7,-5.7l0,-97c0,-3.2 2.6,-5.7 5.7,-5.7l108.8,0c3.2,0 5.7,2.6 5.7,5.7l0,97z" id="svg_77"/>
   <path class="st4" d="m74.6,720.7l0,-0.7c0,-0.1 0.1,-0.2 0.1,-0.4l0,-0.1c0.2,-0.7 0.6,-1.5 1.2,-2c0.6,-0.6 1.3,-1 2,-1.2l0.1,0c0.1,0 0.2,-0.1 0.4,-0.1l1.1,0l19.7,0.5c2.6,0.1 4.7,2.2 4.6,4.9c-0.1,2.6 -2.2,4.7 -4.9,4.6l-7.8,-0.2l15.4,15.4c1.9,1.9 1.9,4.9 0,6.7s-4.9,1.9 -6.7,0l-15.4,-15.4l0.2,7.8c0.1,2.6 -2,4.8 -4.6,4.9c-1.4,0 -2.6,-0.5 -3.5,-1.4c-0.8,-0.8 -1.4,-2 -1.4,-3.3l-0.5,-19.7l0,-0.1l0,-0.2zm44.3,32.9l15.4,15.4l-0.2,-7.8c-0.1,-2.6 2,-4.8 4.6,-4.9c2.6,-0.1 4.8,2 4.9,4.6l0.5,19.7l0,1.1c0,0.1 -0.1,0.2 -0.1,0.4l0,0.1c-0.2,0.7 -0.6,1.5 -1.2,2c-0.6,0.6 -1.3,1 -2,1.2l-0.1,0c-0.1,0 -0.2,0.1 -0.4,0.1l-1.1,0l-19.7,-0.5c-1.3,0 -2.4,-0.6 -3.3,-1.4c-0.9,-0.9 -1.4,-2.1 -1.4,-3.5c0.1,-2.6 2.2,-4.7 4.9,-4.6l7.8,0.2l-15.4,-15.4c-1.9,-1.9 -1.9,-4.9 0,-6.7s4.9,-1.8 6.8,0z" id="svg_78"/>
  </g>
  <g class="st2" id="svg_79">
   <path class="st3" d="m151.6,620.9l-11.4,-11.4c-1.5,-1.5 -3.9,-1.5 -5.4,0c-0.7,0.7 -1.1,1.7 -1.1,2.7s0.4,1.9 1.1,2.7l4.3,4.3l-29.2,0s-3.2,-0.1 -6.2,-1.9c-3.8,-2.2 -5.6,-6.2 -5.6,-12l0,-25.3c0,-0.7 -0.1,-6.7 -4.7,-12.8c-7.4,-9.9 -20.5,-12 -30.1,-12l-12.9,0c-2.4,0 -4.4,2 -4.4,4.4s2,4.4 4.4,4.4l12.8,0c10.7,0 18.6,2.8 22.8,8.1c3.1,3.9 3.2,7.9 3.2,7.9l0,25.3c0,11.6 5.6,17.2 10.4,19.8c4.9,2.8 9.8,2.8 10.3,2.8l29.2,0l-4.3,4.3c-0.7,0.7 -1.1,1.7 -1.1,2.7s0.4,1.9 1.1,2.7c1.5,1.5 3.9,1.5 5.4,0l11.4,-11.4c0.7,-0.7 1.1,-1.7 1.1,-2.7c0,-0.9 -0.3,-1.9 -1.1,-2.6z" id="svg_80"/>
   <path class="st4" d="m151.6,557.1l-11.4,-11.4c-1.5,-1.5 -3.9,-1.5 -5.4,0c-0.7,0.7 -1.1,1.7 -1.1,2.7s0.4,1.9 1.1,2.7l4.3,4.3l-52,0c3.9,2.1 7.5,4.9 10.4,8.8l41.6,0l-4.3,4.3c-0.7,0.7 -1.1,1.7 -1.1,2.7s0.4,1.9 1.1,2.7c1.5,1.5 3.9,1.5 5.4,0l11.4,-11.4c0.7,-0.7 1.1,-1.7 1.1,-2.7s-0.3,-1.9 -1.1,-2.7z" id="svg_81"/>
  </g>
  <g class="st2" id="svg_82">
   <path class="st4" d="m249.3,745.2l0,12.1c0,8.2 8.1,8.4 8.1,8.4l13.9,0l0,30c0,5.5 2.5,11 10.7,11s10.7,-5.5 10.7,-11l0,-30l13.9,0s8.1,-0.2 8.1,-8.4l0,-12.1l-65.4,0zm32.8,53.2c-3,0 -5.5,-2.5 -5.5,-5.5s2.5,-5.5 5.5,-5.5s5.5,2.5 5.5,5.5s-2.5,5.5 -5.5,5.5z" id="svg_83"/>
   <path class="st3" d="m293,704s0,-8.2 -11,-8.2s-11,8.2 -11,8.2s-2.7,-8.2 -13.6,-8.2c0,0 -8.1,0 -8.1,2.7l0,46.6l65.4,0l0,-46.6c0,-2.7 -8.1,-2.7 -8.1,-2.7c-10.9,0 -13.6,8.2 -13.6,8.2z" id="svg_84"/>
   <path class="st4" d="m268.4,745.2l0,-11s-0.1,-2.7 2.7,-2.7c2.7,0 2.7,2.7 2.7,2.7l0,11l-5.4,0zm0,-22l0,-5.5s-0.1,-2.7 2.7,-2.7c2.7,0 2.7,2.7 2.7,2.7l0,5.5s0.1,2.7 -2.7,2.7c-2.8,0.1 -2.7,-2.7 -2.7,-2.7zm22,-5.5l0,-8.2s-0.1,-2.7 2.7,-2.7c2.7,0 2.7,2.7 2.7,2.7l0,8.2s0.1,2.7 -2.7,2.7c-2.8,0.1 -2.7,-2.7 -2.7,-2.7zm0,27.5l0,-16.5s-0.1,-2.7 2.7,-2.7c2.7,0 2.7,2.7 2.7,2.7l0,16.5l-5.4,0z" id="svg_85"/>
  </g>
  <g class="st2" id="svg_86">
   <path class="st4" d="m286.2,265.6c-33.2,0 -45.5,-12.2 -47.2,-12.2l0,14c0,8.7 21.1,15.7 47.2,15.7s47.2,-7 47.2,-15.7l0,-14c-1.7,0 -14,12.2 -47.2,12.2z" id="svg_87"/>
   <path class="st4" d="m286.2,291.7c-33.2,0 -45.5,-12.2 -47.2,-12.2l0,14c0,8.7 21.1,15.7 47.2,15.7s47.2,-7 47.2,-15.7l0,-14c-1.7,0 -14,12.2 -47.2,12.2zm47.2,-64.9c-1.3,-8.8 -21.9,-15.8 -47.2,-15.8c-25.3,0 -45.9,7 -47.2,15.8l-0.1,0l0,14c0,8.7 21.1,15.7 47.2,15.7s47.2,-7 47.2,-15.7l0.1,-14zm-47.2,-8.7c24.9,0 40.2,7 40.1,9.6c0.1,2.6 -15.3,9.6 -40.1,9.6s-40.2,-7 -40.1,-9.6c-0.1,-2.6 15.2,-9.6 40.1,-9.6z" id="svg_88"/>
  </g>
  <g class="st2" id="svg_89">
   <path class="st4" d="m835.4,387.7c20.2,0 36.6,16.4 36.6,36.6s-16.4,36.6 -36.6,36.6c-20.2,0 -36.6,-16.4 -36.6,-36.6s16.4,-36.6 36.6,-36.6m0,-9.4c-25.4,0 -46,20.6 -46,46s20.6,46 46,46s46,-20.6 46,-46c0.1,-25.4 -20.5,-46 -46,-46z" id="svg_90"/>
   <path class="st3" d="m848.8,426.4c-3.4,-5.9 -5.5,-16.4 -17.3,-9.6c-11.7,6.8 -3.7,13.9 -0.3,19.7c5.1,8.8 20.7,15.5 20.7,15.5s2,-16.8 -3.1,-25.6zm-13.4,3.9c-2.4,0 -4.4,-1.9 -4.4,-4.4c0,-2.4 1.9,-4.4 4.4,-4.4c2.4,0 4.4,1.9 4.4,4.4s-2,4.4 -4.4,4.4z" id="svg_91"/>
   <path class="st4" d="m844.6,413.1c-3.4,-5.9 -25.3,-16.7 -25.3,-16.7s-1.6,24.4 1.8,30.2c1.7,2.9 8.5,14.7 20.2,7.9c11.8,-6.7 5,-18.4 3.3,-21.4zm-9.2,17.2c-2.4,0 -4.4,-1.9 -4.4,-4.4c0,-2.4 1.9,-4.4 4.4,-4.4c2.4,0 4.4,1.9 4.4,4.4s-2,4.4 -4.4,4.4z" id="svg_92"/>
  </g>
  <path class="st1" d="m282.9,581.8c-1.9,0 -3.4,-1.5 -3.4,-3.4l0,-33.8c0,-1.9 1.5,-3.4 3.4,-3.4s3.4,1.5 3.4,3.4l0,33.8c0,1.9 -1.5,3.4 -3.4,3.4z" id="svg_93"/>
  <path class="st0" d="m332,619c0,5 -4,9 -9,9l-81.8,0c-5,0 -9,-4 -9,-9l0,-40.6c0,-5 4,-9 9,-9l81.8,0c5,0 9,4 9,9l0,40.6z" id="svg_94"/>
  <path class="st1" d="m257.5,615.1c-2.5,0 -4.5,-2 -4.5,-4.5l0,-21.4c0,-2.5 2,-4.5 4.5,-4.5s4.5,2 4.5,4.5l0,21.4c0,2.5 -2,4.5 -4.5,4.5z" id="svg_95"/>
  <path class="st1" d="m268.2,604.4l-21.4,0c-2.5,0 -4.5,-2 -4.5,-4.5s2,-4.5 4.5,-4.5l21.4,0c2.5,0 4.5,2 4.5,4.5s-2,4.5 -4.5,4.5z" id="svg_96"/>
  <circle class="st1" cx="298.7" cy="607.8" r="6.8" id="svg_97"/>
  <circle class="st1" cx="314.5" cy="592" r="6.8" id="svg_98"/>
  <g class="st2" id="svg_99">
   <path class="st3" d="m166.2,256.2c2.2,2.2 2.2,5.6 0,7.8l-57.7,57.7c-2.2,2.2 -5.6,2.2 -7.8,0l-57.7,-57.7c-2.2,-2.2 -2.2,-5.6 0,-7.8l57.7,-57.7c2.2,-2.2 5.6,-2.2 7.8,0l57.7,57.7z" id="svg_100"/>
   <path class="st4" d="m122.4,243.3l14.1,13.4l0.2,0.2l0.1,0.1c0.1,0.1 0.1,0.2 0.2,0.2l0.1,0.1c0.1,0.1 0.1,0.2 0.2,0.3l0,0.1c0.4,0.7 0.6,1.4 0.6,2.3c0,0.8 -0.2,1.6 -0.6,2.3l0,0.1c-0.1,0.1 -0.1,0.2 -0.2,0.3l-0.1,0.1c-0.1,0.1 -0.1,0.2 -0.2,0.2l-0.1,0.1l-0.2,0.2l-14.1,13.7c-1.9,1.8 -4.9,1.7 -6.7,-0.2c-1.8,-1.9 -1.7,-4.9 0.2,-6.7l5.6,-5.3l-45.6,0c-2.6,0 -4.7,-2.1 -4.7,-4.7s2.1,-4.7 4.7,-4.7l45.6,0l-5.6,-5.3c-1,-0.9 -1.5,-2.2 -1.5,-3.4s0.4,-2.3 1.3,-3.2c1.8,-1.9 4.8,-2 6.7,-0.2z" id="svg_101"/>
  </g>
 </g>
</svg>